<?xml version="1.0" encoding="utf-8"?>
<!-- Generator: Adobe Illustrator 16.0.0, SVG Export Plug-In . SVG Version: 6.00 Build 0)  -->
<!DOCTYPE svg PUBLIC "-//W3C//DTD SVG 1.1//EN" "http://www.w3.org/Graphics/SVG/1.1/DTD/svg11.dtd">
<svg version="1.1" id="Layer_1" xmlns="http://www.w3.org/2000/svg" xmlns:xlink="http://www.w3.org/1999/xlink" x="0px" y="0px"
	 width="2500px" height="2000px" viewBox="0 0 2500 2000" enable-background="new 0 0 2500 2000" xml:space="preserve">
<g>
	<g>
		<g>
			<path fill="#242F65" d="M725.113,1284.935v-64.861h14.64v64.861H725.113z"/>
			<path fill="#242F65" d="M808.226,1253.617v31.317h-14.27v-27.149c0-6.299-3.706-10.191-9.821-10.191
				c-7.134,0.094-11.397,5.466-11.397,12.787v24.554h-14.269v-49.851h14.269v8.711c3.521-6.208,9.451-9.175,17.234-9.266
				C801.091,1234.529,808.226,1241.94,808.226,1253.617z"/>
			<path fill="#242F65" d="M856.035,1282.154c-3.707,2.132-8.34,3.429-12.972,3.429c-8.896,0-15.66-5.096-15.66-15.38v-23.073
				h-6.949v-9.82h6.949v-13.715h14.177v13.715h13.528v9.913H841.58v20.571c0,4.17,1.761,5.837,4.819,5.744
				c1.853,0,4.077-0.648,6.671-1.852L856.035,1282.154z"/>
			<path fill="#242F65" d="M914.779,1264.363h-35.766c1.667,6.304,6.486,10.01,12.88,10.01c4.725,0,9.173-1.854,12.602-5.282
				l7.505,7.598c-5.004,5.56-12.325,8.804-21.313,8.804c-15.937,0-26.037-10.193-26.037-25.296c0-15.383,10.47-25.576,25.667-25.576
				C907.829,1234.62,915.982,1246.204,914.779,1264.363z M901.436,1255.934c-0.185-6.579-4.447-10.842-11.026-10.842
				c-6.301,0-10.563,4.263-11.675,10.842H901.436z"/>
			<path fill="#242F65" d="M943.129,1244.072c3.428-6.114,9.08-9.452,16.493-9.543v13.436c-10.192-0.926-16.493,4.54-16.493,12.973
				v23.997h-14.27v-49.851h14.27V1244.072z"/>
			<path fill="#242F65" d="M999.279,1279.098c-3.336,4.17-8.71,6.485-15.661,6.485c-10.656,0-17.142-6.485-17.142-15.566
				c0-9.358,6.764-14.919,18.995-15.009h13.714v-0.929c0-5.279-3.521-8.34-10.377-8.34c-4.449,0-9.637,1.483-14.826,4.356
				l-4.448-9.822c7.413-3.706,13.806-5.744,22.517-5.744c13.343,0,21.033,6.67,21.126,17.883l0.093,32.522h-13.991V1279.098z
				 M999.186,1267.888v-4.45h-11.212c-5.467,0-8.155,1.668-8.155,5.653c0,3.799,2.966,6.301,7.784,6.301
				C993.626,1275.392,998.352,1272.148,999.186,1267.888z"/>
			<path fill="#242F65" d="M1073.125,1245.092l-9.637,6.949c-2.687-3.335-6.486-5.376-11.397-5.279
				c-6.949,0-11.859,5.372-11.859,13.341c0,8.063,4.911,13.528,11.859,13.528c5.097,0,9.081-1.944,11.583-5.837l9.822,6.672
				c-4.169,6.947-11.953,11.026-22.145,11.026c-15.104,0-25.389-10.193-25.389-25.296c0-15.289,10.286-25.576,25.574-25.576
				C1061.08,1234.62,1068.677,1238.419,1073.125,1245.092z"/>
			<path fill="#242F65" d="M1117.876,1282.154c-3.707,2.132-8.34,3.429-12.974,3.429c-8.894,0-15.658-5.096-15.658-15.38v-23.073
				h-6.95v-9.82h6.95v-13.715h14.177v13.715h13.528v9.913h-13.528v20.571c0,4.17,1.76,5.837,4.818,5.744
				c1.853,0,4.078-0.648,6.671-1.852L1117.876,1282.154z"/>
			<path fill="#242F65" d="M1145.949,1220.908c0,4.631-3.151,7.969-7.691,7.969c-4.54,0-7.69-3.338-7.69-7.969
				c0-4.635,3.15-7.969,7.69-7.969C1142.798,1212.939,1145.949,1216.273,1145.949,1220.908z M1131.124,1284.935v-49.851h14.27
				v49.851H1131.124z"/>
			<path fill="#242F65" d="M1175.505,1284.935l-18.902-49.757l14.732-0.094l11.768,36.322l11.675-36.322h14.178l-18.811,49.851
				H1175.505z"/>
			<path fill="#242F65" d="M1264.085,1264.363h-35.766c1.667,6.304,6.485,10.01,12.88,10.01c4.725,0,9.172-1.854,12.6-5.282
				l7.507,7.598c-5.003,5.56-12.323,8.804-21.313,8.804c-15.938,0-26.036-10.193-26.036-25.296c0-15.383,10.47-25.576,25.665-25.576
				C1257.137,1234.62,1265.29,1246.204,1264.085,1264.363z M1250.742,1255.934c-0.184-6.579-4.447-10.842-11.026-10.842
				c-6.301,0-10.563,4.263-11.676,10.842H1250.742z"/>
			<path fill="#242F65" d="M1353.774,1226.468l-5.652,12.138c-6.857-4.076-15.011-6.672-20.2-6.672
				c-4.911,0-8.247,1.761-8.247,5.282c0,11.954,34.563,5.282,34.47,28.631c0,12.696-11.025,19.552-25.389,19.552
				c-10.655,0-21.313-4.076-28.632-10.284l5.837-11.954c6.672,5.931,16.123,9.729,22.98,9.729c6.023,0,9.636-2.223,9.636-6.208
				c0-12.231-34.562-5.096-34.562-28.076c0-11.768,10.1-19.181,25.111-19.181
				C1338.208,1219.425,1347.287,1222.204,1353.774,1226.468z"/>
			<path fill="#242F65" d="M1417.983,1260.01c0,15.195-10.748,25.482-26.686,25.482c-16.029,0-26.779-10.287-26.779-25.482
				c0-15.289,10.75-25.39,26.779-25.39C1407.235,1234.62,1417.983,1244.721,1417.983,1260.01z M1378.881,1260.196
				c0,8.152,5.005,13.712,12.417,13.712c7.32,0,12.416-5.56,12.416-13.712c0-8.155-5.096-13.715-12.416-13.715
				C1383.886,1246.481,1378.881,1252.041,1378.881,1260.196z"/>
			<path fill="#242F65" d="M1432.527,1284.935v-68.754h14.27v68.754H1432.527z"/>
			<path fill="#242F65" d="M1513.048,1284.935h-14.179v-8.801c-3.429,6.301-9.173,9.358-16.679,9.358
				c-11.025,0-17.977-7.32-17.977-19.088v-31.32h14.271v27.241c0,6.302,3.612,10.101,9.358,10.101
				c6.856-0.091,11.025-5.467,11.025-12.693v-24.648h14.179V1284.935z"/>
			<path fill="#242F65" d="M1562.338,1282.154c-3.707,2.132-8.34,3.429-12.974,3.429c-8.896,0-15.658-5.096-15.658-15.38v-23.073
				h-6.95v-9.82h6.95v-13.715h14.176v13.715h13.528v9.913h-13.528v20.571c0,4.17,1.761,5.837,4.819,5.744
				c1.852,0,4.077-0.648,6.673-1.852L1562.338,1282.154z"/>
			<path fill="#242F65" d="M1590.411,1220.908c0,4.631-3.149,7.969-7.69,7.969c-4.542,0-7.691-3.338-7.691-7.969
				c0-4.635,3.149-7.969,7.691-7.969C1587.262,1212.939,1590.411,1216.273,1590.411,1220.908z M1575.585,1284.935v-49.851h14.27
				v49.851H1575.585z"/>
			<path fill="#242F65" d="M1657.401,1260.01c0,15.195-10.75,25.482-26.688,25.482c-16.029,0-26.778-10.287-26.778-25.482
				c0-15.289,10.749-25.39,26.778-25.39C1646.651,1234.62,1657.401,1244.721,1657.401,1260.01z M1618.299,1260.196
				c0,8.152,5.004,13.712,12.415,13.712c7.321,0,12.416-5.56,12.416-13.712c0-8.155-5.095-13.715-12.416-13.715
				C1623.303,1246.481,1618.299,1252.041,1618.299,1260.196z"/>
			<path fill="#242F65" d="M1721.24,1253.617v31.317h-14.27v-27.149c0-6.299-3.707-10.191-9.823-10.191
				c-7.134,0.094-11.396,5.466-11.396,12.787v24.554h-14.269v-49.851h14.269v8.711c3.521-6.208,9.452-9.175,17.235-9.266
				C1714.105,1234.529,1721.24,1241.94,1721.24,1253.617z"/>
			<path fill="#242F65" d="M1774.516,1239.996l-4.91,9.729c-5.467-3.061-11.025-4.818-15.197-4.818c-3.336,0-5.744,1.11-5.744,3.706
				c0,7.504,26.314,3.705,26.223,21.313c0,10.19-8.988,15.566-20.294,15.566c-8.062,0-15.938-2.412-21.589-6.949l4.633-9.639
				c5.189,3.985,11.859,6.21,17.327,6.21c3.616,0,6.301-1.206,6.301-3.892c0-7.969-25.851-3.706-25.851-21.22
				c0-10.284,8.801-15.566,19.645-15.566C1761.913,1234.437,1768.956,1236.475,1774.516,1239.996z"/>
		</g>
	</g>
	<g>
		<path fill="#58595B" d="M857.938,1326.108c0,5.329-1.461,9.384-4.383,12.169c-2.922,2.783-7.168,4.176-12.735,4.176h-8.972
			v-32.072h9.951c5.122,0,9.093,1.366,11.912,4.1C856.527,1317.214,857.938,1321.088,857.938,1326.108z M852.421,1326.261
			c0-7.662-3.592-11.497-10.775-11.497h-4.538v23.255h3.712C848.553,1338.019,852.421,1334.101,852.421,1326.261z"/>
		<path fill="#58595B" d="M876.913,1311.722c0-1.891,0.961-2.835,2.887-2.835c1.924,0,2.886,0.944,2.886,2.835
			s-0.962,2.837-2.886,2.837C877.874,1314.559,876.913,1313.612,876.913,1311.722z M882.377,1342.453h-5.156v-24.285h5.156V1342.453
			z"/>
		<path fill="#58595B" d="M908.208,1342.453l-9.229-24.285h5.464l4.9,14.127c0.412,1.203,0.754,2.277,1.03,3.221
			c0.274,0.947,0.446,1.782,0.516,2.503h0.206c0.104-0.962,0.601-2.871,1.497-5.724l4.948-14.127h5.518l-9.28,24.285H908.208z"/>
		<path fill="#58595B" d="M950.229,1342.917c-3.813,0-6.778-1.11-8.893-3.327s-3.172-5.251-3.172-9.1
			c0-3.951,0.98-7.063,2.939-9.332c1.96-2.27,4.691-3.402,8.198-3.402c3.23,0,5.767,0.962,7.604,2.886
			c1.84,1.927,2.76,4.608,2.76,8.044v2.785h-16.191c0.104,2.37,0.749,4.186,1.934,5.438c1.185,1.256,2.878,1.883,5.078,1.883
			c1.444,0,2.775-0.13,3.997-0.387c1.219-0.259,2.552-0.713,3.996-1.366v4.229c-1.272,0.583-2.552,1.006-3.84,1.263
			C953.35,1342.787,951.88,1342.917,950.229,1342.917z M949.302,1321.622c-1.649,0-2.963,0.523-3.945,1.571
			c-0.979,1.051-1.573,2.57-1.778,4.564h11.034c-0.034-2.062-0.515-3.603-1.444-4.613
			C952.241,1322.131,950.951,1321.622,949.302,1321.622z"/>
		<path fill="#58595B" d="M1002.873,1311.722c0-1.891,0.963-2.835,2.888-2.835c1.924,0,2.888,0.944,2.888,2.835
			s-0.963,2.837-2.888,2.837C1003.836,1314.559,1002.873,1313.612,1002.873,1311.722z M1008.339,1342.453h-5.155v-24.285h5.155
			V1342.453z"/>
		<path fill="#58595B" d="M1049.999,1342.453h-5.208v-14.952c0-1.856-0.37-3.249-1.11-4.178c-0.739-0.929-1.932-1.393-3.582-1.393
			c-2.201,0-3.799,0.646-4.796,1.935c-0.997,1.289-1.494,3.446-1.494,6.47v12.118h-5.156v-24.285h4.021l0.722,3.197h0.258
			c0.722-1.17,1.753-2.064,3.095-2.684c1.338-0.617,2.835-0.926,4.484-0.926c5.844,0,8.766,2.956,8.766,8.868V1342.453z"/>
		<path fill="#58595B" d="M1079.182,1338.739c1.27,0,2.526-0.205,3.764-0.617v3.866c-0.551,0.275-1.281,0.498-2.191,0.669
			c-0.91,0.174-1.849,0.26-2.81,0.26c-4.882,0-7.322-2.578-7.322-7.735v-13.096h-3.3v-2.269l3.557-1.909l1.753-5.154h3.146v5.414
			h6.959v3.918h-6.959v12.994c0,1.237,0.316,2.155,0.953,2.757C1077.369,1338.438,1078.185,1338.739,1079.182,1338.739z"/>
		<path fill="#58595B" d="M1122.234,1330.285c0,3.952-1.015,7.046-3.041,9.278c-2.03,2.235-4.865,3.354-8.509,3.354
			c-1.719,0-3.283-0.301-4.691-0.902c-1.41-0.602-2.613-1.452-3.61-2.552c-0.998-1.1-1.771-2.425-2.32-3.971
			c-0.551-1.548-0.825-3.282-0.825-5.207c0-3.954,1.004-7.029,3.016-9.23c2.011-2.199,4.873-3.299,8.585-3.299
			c1.753,0,3.334,0.29,4.743,0.876c1.409,0.584,2.604,1.419,3.583,2.5c0.98,1.084,1.737,2.398,2.271,3.944
			C1121.967,1326.624,1122.234,1328.359,1122.234,1330.285z M1104.549,1330.285c0,5.602,2.08,8.404,6.239,8.404
			c4.09,0,6.136-2.803,6.136-8.404c0-5.569-2.063-8.354-6.187-8.354c-2.167,0-3.739,0.724-4.719,2.168
			C1105.038,1325.54,1104.549,1327.602,1104.549,1330.285z"/>
		<path fill="#58595B" d="M1174.876,1338.739c1.271,0,2.527-0.205,3.765-0.617v3.866c-0.55,0.275-1.281,0.498-2.192,0.669
			c-0.911,0.174-1.848,0.26-2.811,0.26c-4.879,0-7.319-2.578-7.319-7.735v-13.096h-3.3v-2.269l3.557-1.909l1.753-5.154h3.145v5.414
			h6.961v3.918h-6.961v12.994c0,1.237,0.317,2.155,0.955,2.757C1173.064,1338.438,1173.88,1338.739,1174.876,1338.739z"/>
		<path fill="#58595B" d="M1217.775,1342.453h-5.208v-14.952c0-1.856-0.37-3.249-1.108-4.178c-0.74-0.929-1.933-1.393-3.583-1.393
			c-2.166,0-3.755,0.656-4.771,1.96c-1.015,1.308-1.52,3.473-1.52,6.496v12.066h-5.156v-34.186h5.156v8.716
			c0,1.374-0.104,2.85-0.311,4.432h0.362c0.687-1.167,1.66-2.069,2.913-2.705c1.254-0.638,2.725-0.954,4.409-0.954
			c5.878,0,8.818,2.956,8.818,8.868V1342.453z"/>
		<path fill="#58595B" d="M1248.504,1342.917c-3.816,0-6.781-1.11-8.895-3.327s-3.169-5.251-3.169-9.1
			c0-3.951,0.977-7.063,2.938-9.332c1.958-2.27,4.69-3.402,8.196-3.402c3.231,0,5.767,0.962,7.607,2.886
			c1.836,1.927,2.758,4.608,2.758,8.044v2.785h-16.19c0.103,2.37,0.747,4.186,1.933,5.438c1.187,1.256,2.878,1.883,5.079,1.883
			c1.443,0,2.774-0.13,3.996-0.387c1.22-0.259,2.553-0.713,3.995-1.366v4.229c-1.271,0.583-2.551,1.006-3.841,1.263
			C1251.623,1342.787,1250.154,1342.917,1248.504,1342.917z M1247.575,1321.622c-1.65,0-2.964,0.523-3.944,1.571
			c-0.979,1.051-1.573,2.57-1.779,4.564h11.034c-0.034-2.062-0.516-3.603-1.445-4.613
			C1250.515,1322.131,1249.225,1321.622,1247.575,1321.622z"/>
		<path fill="#58595B" d="M1322.802,1342.453h-5.207v-14.952c0-1.856-0.369-3.249-1.108-4.178s-1.934-1.393-3.584-1.393
			c-2.2,0-3.8,0.646-4.794,1.935c-0.997,1.289-1.495,3.446-1.495,6.47v12.118h-5.158v-24.285h4.022l0.724,3.197h0.256
			c0.723-1.17,1.754-2.064,3.094-2.684c1.341-0.617,2.836-0.926,4.486-0.926c5.844,0,8.765,2.956,8.765,8.868V1342.453z"/>
		<path fill="#58595B" d="M1353.533,1342.917c-3.817,0-6.781-1.11-8.895-3.327c-2.115-2.217-3.173-5.251-3.173-9.1
			c0-3.951,0.98-7.063,2.939-9.332c1.96-2.27,4.692-3.402,8.199-3.402c3.231,0,5.766,0.962,7.604,2.886
			c1.84,1.927,2.762,4.608,2.762,8.044v2.785h-16.191c0.101,2.37,0.746,4.186,1.932,5.438c1.188,1.256,2.88,1.883,5.081,1.883
			c1.445,0,2.774-0.13,3.995-0.387c1.22-0.259,2.554-0.713,3.995-1.366v4.229c-1.271,0.583-2.55,1.006-3.84,1.263
			S1355.184,1342.917,1353.533,1342.917z M1352.604,1321.622c-1.65,0-2.968,0.523-3.942,1.571c-0.981,1.051-1.575,2.57-1.783,4.564
			h11.035c-0.033-2.062-0.515-3.603-1.443-4.613C1355.541,1322.131,1354.254,1321.622,1352.604,1321.622z"/>
		<path fill="#58595B" d="M1401.638,1342.453l-3.146-11.343c-0.174-0.586-0.436-1.574-0.799-2.967
			c-0.36-1.393-0.781-3.187-1.263-5.389h-0.206c-0.86,3.888-1.531,6.688-2.012,8.404l-3.25,11.294h-5.671l-6.806-24.285h5.261
			l3.095,11.962c0.341,1.479,0.635,2.843,0.875,4.098c0.241,1.257,0.446,2.417,0.617,3.479h0.106
			c0.064-0.479,0.161-1.048,0.284-1.701c0.117-0.65,0.244-1.304,0.385-1.957c0.136-0.654,0.274-1.256,0.411-1.806
			c0.136-0.55,0.259-0.979,0.361-1.288l3.712-12.787h5.674l3.556,12.787c0.104,0.309,0.23,0.772,0.386,1.393
			c0.156,0.619,0.3,1.271,0.438,1.957c0.138,0.688,0.26,1.341,0.362,1.961c0.102,0.617,0.172,1.102,0.207,1.441h0.206
			c0.206-1.786,0.721-4.313,1.546-7.577l3.094-11.962h5.209l-6.858,24.285H1401.638z"/>
		<path fill="#58595B" d="M1468.409,1317.756c1.135,0,1.993,0.07,2.578,0.205l-0.515,4.794c-0.794-0.168-1.549-0.257-2.271-0.257
			c-2.062,0-3.729,0.67-5.001,2.01c-1.272,1.341-1.906,3.094-1.906,5.262v12.684h-5.156v-24.285h4.021l0.671,4.278h0.257
			c0.824-1.444,1.882-2.585,3.169-3.428C1465.547,1318.176,1466.932,1317.756,1468.409,1317.756z"/>
		<path fill="#58595B" d="M1499.034,1342.917c-3.814,0-6.779-1.11-8.893-3.327c-2.114-2.217-3.173-5.251-3.173-9.1
			c0-3.951,0.98-7.063,2.94-9.332c1.958-2.27,4.692-3.402,8.198-3.402c3.23,0,5.765,0.962,7.603,2.886
			c1.84,1.927,2.762,4.608,2.762,8.044v2.785h-16.189c0.101,2.37,0.745,4.186,1.931,5.438c1.188,1.256,2.879,1.883,5.081,1.883
			c1.444,0,2.774-0.13,3.996-0.387c1.219-0.259,2.55-0.713,3.995-1.366v4.229c-1.271,0.583-2.553,1.006-3.841,1.263
			C1502.155,1342.787,1500.687,1342.917,1499.034,1342.917z M1498.107,1321.622c-1.65,0-2.967,0.523-3.944,1.571
			c-0.98,1.051-1.574,2.57-1.78,4.564h11.035c-0.033-2.062-0.519-3.603-1.445-4.613
			C1501.045,1322.131,1499.758,1321.622,1498.107,1321.622z"/>
		<path fill="#58595B" d="M1542.397,1342.453l-1.03-3.405h-0.157c-0.583,0.724-1.159,1.333-1.726,1.831s-1.171,0.902-1.806,1.213
			c-0.636,0.309-1.324,0.524-2.06,0.646c-0.741,0.116-1.576,0.179-2.504,0.179c-2.407,0-4.278-0.644-5.619-1.935
			c-1.342-1.289-2.011-3.119-2.011-5.49c0-2.543,0.919-4.426,2.758-5.647c1.84-1.219,4.684-1.916,8.534-2.087l4.176-0.156v-1.286
			c0-3.096-1.478-4.642-4.433-4.642c-1.238,0-2.433,0.182-3.585,0.542c-1.15,0.36-2.242,0.799-3.273,1.314l-1.703-3.713
			c1.342-0.688,2.793-1.203,4.359-1.548c1.563-0.343,3.034-0.514,4.405-0.514c3.128,0,5.476,0.661,7.041,1.983
			c1.562,1.325,2.345,3.446,2.345,6.369v16.345H1542.397z M1534.716,1338.946c1.889,0,3.4-0.523,4.535-1.573
			c1.135-1.048,1.702-2.519,1.702-4.406v-2.116l-3.146,0.156c-2.407,0.138-4.168,0.542-5.283,1.211
			c-1.117,0.671-1.677,1.778-1.677,3.327c0,1.065,0.327,1.897,0.98,2.499C1532.48,1338.646,1533.442,1338.946,1534.716,1338.946z"/>
		<path fill="#58595B" d="M1571.373,1342.453h-5.156v-34.186h5.156V1342.453z"/>
		<path fill="#58595B" d="M1591.379,1311.722c0-1.891,0.961-2.835,2.887-2.835c1.925,0,2.889,0.944,2.889,2.835
			s-0.964,2.837-2.889,2.837C1592.34,1314.559,1591.379,1313.612,1591.379,1311.722z M1596.844,1342.453h-5.156v-24.285h5.156
			V1342.453z"/>
		<path fill="#58595B" d="M1626.18,1338.739c1.273,0,2.527-0.205,3.766-0.617v3.866c-0.551,0.275-1.281,0.498-2.192,0.669
			c-0.909,0.174-1.847,0.26-2.809,0.26c-4.883,0-7.321-2.578-7.321-7.735v-13.096h-3.3v-2.269l3.557-1.909l1.754-5.154h3.146v5.414
			h6.961v3.918h-6.961v12.994c0,1.237,0.317,2.155,0.953,2.757C1624.37,1338.438,1625.185,1338.739,1626.18,1338.739z"/>
		<path fill="#58595B" d="M1644.023,1318.168h5.618l4.951,13.767c0.378,0.996,0.687,1.95,0.926,2.86
			c0.239,0.913,0.432,1.797,0.568,2.658h0.155c0.067-0.415,0.129-0.742,0.181-0.982c0.05-0.239,0.128-0.54,0.23-0.9
			c0.101-0.36,0.259-0.868,0.466-1.521c0.204-0.654,0.522-1.624,0.954-2.912c0.429-1.292,1.006-2.975,1.724-5.055
			c0.723-2.079,1.633-4.717,2.735-7.914h5.619l-10.415,27.531c-1.926,5.021-5.067,7.53-9.436,7.53c-0.585,0-1.152-0.025-1.701-0.077
			c-0.55-0.053-1.101-0.148-1.649-0.286v-4.071c0.858,0.172,1.752,0.26,2.681,0.26c1.271,0.031,2.318-0.321,3.145-1.058
			c0.826-0.739,1.529-1.831,2.114-3.275l0.878-2.269L1644.023,1318.168z"/>
	</g>
	<g>
		<polygon fill="#21409A" points="1233.943,662.354 1233.943,750.37 1158.792,824.691 1101.934,779.469 		"/>
		<polygon fill="#21409A" points="1083.41,797.908 1233.938,917.629 1233.938,1054.074 1083.41,903.525 		"/>
		<path fill="#21409A" d="M1361.379,694.437c0,12.957-5.168,24.705-13.559,33.296c-8.654,8.87-20.732,14.37-34.097,14.37
			c-26.331,0-47.667-21.345-47.667-47.666c0-26.32,21.336-47.667,47.667-47.667C1340.044,646.771,1361.379,668.117,1361.379,694.437
			z"/>
		<polygon fill="#242F65" points="1233.943,750.37 1101.934,779.469 1158.792,824.691 		"/>
		<polygon fill="#21409A" points="1266.057,785.162 1266.057,873.178 1341.208,947.5 1398.064,902.277 		"/>
		<polygon fill="#21409A" points="1416.59,920.717 1266.062,1040.438 1266.062,1176.882 1416.59,1026.333 		"/>
		<polygon fill="#242F65" points="1266.057,873.178 1398.064,902.277 1341.208,947.5 		"/>
		<polygon fill="#242F65" points="1233.938,917.629 1083.41,903.525 1233.938,1054.074 		"/>
		<polygon fill="#242F65" points="1266.062,1040.438 1266.062,1176.882 1416.59,1026.333 		"/>
		<path fill="#242F65" d="M1347.82,727.733c-8.654,8.87-20.732,14.37-34.097,14.37c-26.331,0-47.667-21.345-47.667-47.666
			c0,0,33.147,48.2,81.744,33.307C1347.812,727.744,1347.812,727.744,1347.82,727.733z"/>
	</g>
</g>
</svg>
